Coordinates
version=1
nRows=11
nColumns=40
inDegrees=yes

Units are S.I. units (second, meters, Newtons, ...)
If the header above contains a line with 'inDegrees', this indicates whether rotational values are in degrees (yes) or radians (no).

endheader
time	pelvis_tilt	pelvis_list	pelvis_rotation	pelvis_tx	pelvis_ty	pelvis_tz	hip_flexion_r	hip_adduction_r	hip_rotation_r	knee_angle_r	knee_angle_r_beta	ankle_angle_r	subtalar_angle_r	mtp_angle_r	hip_flexion_l	hip_adduction_l	hip_rotation_l	knee_angle_l	knee_angle_l_beta	ankle_angle_l	subtalar_angle_l	mtp_angle_l	lumbar_extension	lumbar_bending	lumbar_rotation	arm_flex_r	arm_add_r	arm_rot_r	elbow_flex_r	pro_sup_r	wrist_flex_r	wrist_dev_r	arm_flex_l	arm_add_l	arm_rot_l	elbow_flex_l	pro_sup_l	wrist_flex_l	wrist_dev_l
      0.32000000	     20.54649773	     -0.06586333	      2.96845968	      0.51822934	      0.97177940	     -0.31938040	     -9.17300236	      2.68559268	     -7.78947902	     21.01606690	      0.36679956	     -4.25772838	      0.00000000	      0.00000000	    -17.83908193	     -3.56802361	      1.07270204	     54.83104669	      0.95698230	    -24.76321971	      0.00000000	      0.00000000	    -33.53805912	      3.33547205	     -3.85160227	      1.44199146	    -16.82429622	     12.22783829	     43.42470928	     75.83780092	      0.00000000	      0.00000000	      4.33806570	    -23.28155199	     26.07901610	     46.44708236	     81.96600840	      0.00000000	      0.00000000
      0.32400000	     20.63332140	      0.02180042	      2.77461150	      0.52403733	      0.97284598	     -0.31916468	     -9.80835072	      2.56379190	     -8.01410127	     20.75341614	      0.36221544	     -4.12738904	      0.00000000	      0.00000000	    -17.26461442	     -3.46640086	      0.87925056	     55.04800513	      0.96076894	    -24.42237485	      0.00000000	      0.00000000	    -33.60273871	      3.14573733	     -3.63546281	      1.54702698	    -16.89337454	     12.25400559	     43.61334165	     75.85420198	      0.00000000	      0.00000000	      4.17177612	    -23.27843936	     26.06782541	     46.37996519	     81.99094003	      0.00000000	      0.00000000
      0.32800000	     20.85269922	     -0.14565140	      2.90606621	      0.53055941	      0.97403737	     -0.31876182	    -11.04743606	      2.96546388	     -7.94887629	     19.57549559	      0.34165685	     -4.39281931	      0.00000000	      0.00000000	    -16.92514227	     -3.76838273	      0.93559874	     55.29206819	      0.96502864	    -23.03079285	      0.00000000	      0.00000000	    -33.73048071	      3.31134799	     -3.49575636	      1.48702967	    -16.96335834	     12.15315703	     43.90489510	     75.53935628	      0.00000000	      0.00000000	      3.90693018	    -23.31105038	     25.91884874	     46.44370856	     82.43608202	      0.00000000	      0.00000000
      0.33200000	     20.91893710	     -0.03998025	      2.70765894	      0.53636744	      0.97501472	     -0.31831963	    -11.68334905	      2.85206161	     -8.16629068	     19.27762869	      0.33645809	     -4.25344751	      0.00000000	      0.00000000	    -16.32984298	     -3.67055141	      0.74752638	     55.45570820	      0.96788470	    -22.67497599	      0.00000000	      0.00000000	    -33.79021465	      3.07648325	     -3.27991569	      1.64787629	    -16.96996844	     12.19588175	     44.01522741	     75.53487634	      0.00000000	      0.00000000	      3.83368037	    -23.30303298	     25.84951152	     46.27372206	     82.48238726	      0.00000000	      0.00000000
      0.33600000	     21.13114899	     -0.19162320	      2.71036243	      0.54259817	      0.97606026	     -0.31787619	    -12.82556164	      3.18932568	     -7.92677241	     18.23127780	      0.31819582	     -4.50855222	      0.00000000	      0.00000000	    -15.97636019	     -3.88265058	      0.73527585	     55.66346411	      0.97151072	    -21.22056139	      0.00000000	      0.00000000	    -33.91652908	      3.15792846	     -3.10614655	      1.66668164	    -17.08288519	     12.40525736	     44.34860311	     75.51836453	      0.00000000	      0.00000000	      3.48160788	    -23.36140505	     25.58061189	     46.47365747	     82.86626795	      0.00000000	      0.00000000
      0.34000000	     21.16081917	     -0.06525153	      2.49482823	      0.54820662	      0.97698440	     -0.31761923	    -13.47266566	      3.04437329	     -8.02872806	     17.77398027	      0.31021448	     -4.48093413	      0.00000000	      0.00000000	    -15.35052514	     -3.67849484	      0.57226270	     55.74010723	      0.97284840	    -20.71543885	      0.00000000	      0.00000000	    -33.95603257	      2.91060802	     -2.88388896	      1.79588960	    -17.14944890	     12.49037582	     44.55737192	     75.54011939	      0.00000000	      0.00000000	      3.41791273	    -23.29385792	     25.48312432	     46.28041611	     82.94739115	      0.00000000	      0.00000000
      0.34400000	     21.17645697	      0.01706225	      2.37245005	      0.55410335	      0.97780201	     -0.31741319	    -14.19888489	      2.99854122	     -8.00779070	     17.13657304	      0.29908962	     -4.55850825	      0.00000000	      0.00000000	    -14.75158826	     -3.54612474	      0.49606209	     55.81302096	      0.97412098	    -19.76787978	      0.00000000	      0.00000000	    -33.94288186	      2.74100876	     -2.70457575	      1.84829722	    -17.21663585	     12.53680879	     44.83022670	     75.55237243	      0.00000000	      0.00000000	      3.19971879	    -23.27641014	     25.23842840	     46.28088864	     83.08737284	      0.00000000	      0.00000000
      0.34800000	     21.32196738	     -0.02129643	      2.33296054	      0.56011405	      0.97865724	     -0.31688924	    -15.10993657	      3.14409218	     -8.03224167	     16.40476127	      0.28631710	     -4.72549802	      0.00000000	      0.00000000	    -14.29972428	     -3.60536356	      0.47791058	     55.87211467	      0.97515236	    -18.65792999	      0.00000000	      0.00000000	    -34.04268855	      2.70429702	     -2.57951158	      1.93725184	    -17.27051520	     12.70172138	     45.09428137	     75.60677671	      0.00000000	      0.00000000	      2.95473411	    -23.30958941	     24.93898124	     46.34644904	     83.28800581	      0.00000000	      0.00000000
      0.35200000	     21.35660323	     -0.01531417	      2.17592491	      0.56535326	      0.97947593	     -0.31636219	    -15.58335769	      3.13075848	     -8.20225697	     16.24449578	      0.28351994	     -4.69444377	      0.00000000	      0.00000000	    -13.67536436	     -3.54202834	      0.42091075	     55.75538860	      0.97311511	    -18.43412358	      0.00000000	      0.00000000	    -34.11743470	      2.56365781	     -2.35361600	      2.16545992	    -17.27198342	     12.69296399	     45.26808849	     75.61474982	      0.00000000	      0.00000000	      2.85851594	    -23.38143082	     24.88963936	     46.34285269	     83.31809324	      0.00000000	      0.00000000
      0.35600000	     21.87647408	      0.01524939	      2.25398477	      0.57243177	      0.98083504	     -0.31597782	    -17.38951013	      3.34752163	     -8.01898996	     14.61757798	      0.25512486	     -5.36174187	      0.00000000	      0.00000000	    -13.82592026	     -3.64388790	      0.30779519	     55.52301091	      0.96905935	    -17.08242481	      0.00000000	      0.00000000	    -34.51861863	      2.53059809	     -2.42660113	      2.16073004	    -17.26961964	     12.83139050	     45.54917318	     75.90952216	      0.00000000	      0.00000000	      2.22649318	    -23.45947508	     24.14122457	     46.79954905	     83.78539720	      0.00000000	      0.00000000
      0.36000000	     21.87460998	      0.05626031	      2.12710508	      0.57816484	      0.98147828	     -0.31564169	    -17.84960024	      3.31014226	     -8.23998131	     14.48087317	      0.25273892	     -5.27434945	      0.00000000	      0.00000000	    -13.20359675	     -3.54954812	      0.22334734	     55.35174237	      0.96607015	    -16.73866897	      0.00000000	      0.00000000	    -34.50776396	      2.37048440	     -2.25309062	      2.29327699	    -17.28818977	     12.87103111	     45.72328906	     75.91878553	      0.00000000	      0.00000000	      2.12868671	    -23.46204580	     24.10936171	     46.67535397	     83.82469099	      0.00000000	      0.00000000
